<svg width="48" height="42" viewBox="0 0 48 42" fill="none" xmlns="http://www.w3.org/2000/svg">
<rect width="47.6324" height="42" fill="#523521"/>
<path d="M14.485 10.5067H22.8487V20H0V0H8.36374V18.9867H14.485V10.5067Z" fill="#FFAA00"/>
<path d="M47.5786 7.49333H39.2687V1.01333H33.1585V18.9867H39.2687V12.5067H47.5786V20H24.8486V0H47.5786V7.49333Z" fill="#FFAA00"/>
<path d="M22.7837 31.4933V32.5067V42H0L0 35.36H8.3286V40.9867H14.3943V32.5067H0V22H22.7837V28.64H14.3943V23.0133H8.3286V31.4933H22.7837Z" fill="#FFAA00"/>
<path d="M24.8486 22H47.6323V32.5067H33.1772V42H24.8486V22ZM33.1772 31.4933H39.243V23.0133H33.1772V31.4933Z" fill="#FFAA00"/>
</svg>
